#!OML:ASF X:\für Bonn\!DataBase\2005_08_10_Bjorn_Final\c3d\bjorn.ASF
:FULLY-SPECIFIED
:DEGREES
31
root 1.69816 18.5269 6.96603 -184.348 -12.6845 -177.197
lowerback 0.25161 -1.15848 -2.77778
upperback 9.40326 -2.08749 -4.90233
thorax 9.7219 -1.43522 -3.92405
lowerneck -1.8903 3.6736 0.833378
upperneck 26.8905 1.77905 2.38483
head 8.65475 0.157843 0.653778
rclavicle 3.02153e-014 6.83819e-014
rhumerus -38.7948 -10.1969 -87.2575
rradius 32.1534
rwrist 1.90556
rhand -5.18531 8.06818
rfingers 7.12502
rthumb 20.6154 -20.8571
lclavicle 3.02153e-014 6.83819e-014
lhumerus -23.5094 -8.42654 83.6847
lradius 30.9366
lwrist -19.8001
lhand -10.2337 -8.785
lfingers 7.12502
lthumb 15.7586 20.5935
rfemur -24.8255 -5.70429 18.6783
rtibia 56.4576
rfoot -14.6907 9.86132
rtoes -13.4871
lfemur -8.07939 11.648 -14.4661
ltibia 41.3277
lfoot -22.3729 -12.4491
ltoes 0.543495
32
root 1.691 18.5253 6.94618 -184.417 -12.5265 -177.128
lowerback 0.284071 -1.1344 -2.65032
upperback 9.43521 -2.06823 -4.93064
thorax 9.73405 -1.41729 -4.02528
lowerneck -1.90415 3.70166 0.951971
upperneck 26.7816 1.85077 2.30461
head 8.62189 0.203137 0.612477
rclavicle -3.97569e-015 -4.77083e-014
rhumerus -38.8152 -10.5768 -87.0014
rradius 32.2283
rwrist 2.17706
rhand -5.37563 7.94789
rfingers 7.12502
rthumb 20.4325 -20.9971
lclavicle -3.97569e-015 -4.77083e-014
lhumerus -23.6034 -9.67044 83.7102
lradius 31.4339
lwrist -18.8357
lhand -9.39095 -9.45728
lfingers 7.12502
lthumb 16.5701 19.8553
rfemur -24.9409 -5.81829 18.8404
rtibia 56.6026
rfoot -14.647 9.86688
rtoes -13.8924
lfemur -7.92028 11.6548 -14.3972
ltibia 41.3059
lfoot -22.3354 -12.2441
ltoes 0.913281
33
root 1.68377 18.5246 6.92577 -184.453 -12.3674 -177.043
lowerback 0.280579 -1.12628 -2.52621
upperback 9.44874 -2.06416 -4.91995
thorax 9.74754 -1.40571 -4.08399
lowerneck -1.86867 3.74271 1.01021
upperneck 26.6509 1.94217 2.24345
head 8.57099 0.252555 0.588822
rclavicle 1.70955e-014 8.74653e-014
rhumerus -38.8244 -10.8608 -86.7156
rradius 32.2664
rwrist 2.36209
rhand -5.52618 7.84544
rfingers 7.12502
rthumb 20.2878 -21.115
lclavicle 1.70955e-014 8.74653e-014
lhumerus -23.6993 -10.6904 83.76
lradius 31.9066
lwrist -17.855
lhand -8.50843 -9.81664
lfingers 7.12502
lthumb 17.4196 19.4228
rfemur -25.0945 -5.92607 19.0192
rtibia 56.7199
rfoot -14.6351 9.91663
rtoes -14.2964
lfemur -7.7905 11.6811 -14.3145
ltibia 41.2671
lfoot -22.2815 -12.0531
ltoes 1.15771
34
root 1.67644 18.526 6.90422 -184.405 -12.2319 -177.028
lowerback 0.193486 -1.116 -2.44507
upperback 9.46434 -2.04947 -4.93826
thorax 9.81477 -1.39067 -4.15423
lowerneck -1.87882 3.773 1.16976
upperneck 26.5361 2.02476 2.11768
head 8.53719 0.303346 0.526101
rclavicle 1.78906e-014 8.74653e-014
rhumerus -38.7811 -11.2365 -86.4476
rradius 32.2467
rwrist 2.59749
rhand -5.64706 7.80434
rfingers 7.12502
rthumb 20.1716 -21.1684
lclavicle 1.78906e-014 8.74653e-014
lhumerus -23.7507 -11.7052 83.7868
lradius 32.3614
lwrist -16.8346
lhand -7.74083 -9.82667
lfingers 7.12502
lthumb 18.1582 19.3458
rfemur -25.328 -6.06982 19.1216
rtibia 56.8169
rfoot -14.6309 10.037
rtoes -14.5131
lfemur -7.72734 11.6476 -14.3372
ltibia 41.2067
lfoot -22.2659 -11.8201
ltoes 1.35569
35
root 1.66959 18.5289 6.88216 -184.316 -12.0834 -177.058
lowerback 0.0755255 -1.11226 -2.42235
upperback 9.46681 -2.03748 -4.94413
thorax 9.88796 -1.38102 -4.17921
lowerneck -1.87512 3.82013 1.30301
upperneck 26.434 2.12527 2.00738
head 8.50472 0.35979 0.474252
rclavicle 1.31198e-014 5.08889e-014
rhumerus -38.6963 -11.5936 -86.1652
rradius 32.174
rwrist 2.85501
rhand -5.77589 7.75554
rfingers 7.12502
rthumb 20.0478 -21.2302
lclavicle 1.31198e-014 5.08889e-014
lhumerus -23.8082 -12.4639 83.8277
lradius 32.8008
lwrist -16.1372
lhand -7.21035 -9.69418
lfingers 7.12502
lthumb 18.6685 19.43
rfemur -25.5998 -6.19162 19.1718
rtibia 56.889
rfoot -14.6664 10.1805
rtoes -14.5941
lfemur -7.686 11.6451 -14.4121
ltibia 41.1287
lfoot -22.2518 -11.5922
ltoes 1.44528
36
root 1.66257 18.5323 6.86003 -184.216 -11.9567 -177.07
lowerback -0.0472145 -1.1237 -2.39581
upperback 9.46664 -2.04457 -4.91859
thorax 9.96079 -1.38034 -4.17374
lowerneck -1.87302 3.87162 1.46714
upperneck 26.3346 2.24928 1.81326
head 8.47542 0.423105 0.390883
rclavicle -1.51076e-014 5.24792e-014
rhumerus -38.5807 -11.9649 -85.843
rradius 32.0633
rwrist 3.11737
rhand -5.90551 7.71715
rfingers 7.12502
rthumb 19.9232 -21.2816
lclavicle -1.51076e-014 5.24792e-014
lhumerus -23.8508 -13.0817 83.8978
lradius 33.1937
lwrist -15.6401
lhand -6.88215 -9.45763
lfingers 7.12502
lthumb 18.9842 19.6359
rfemur -25.8847 -6.33602 19.2428
rtibia 56.93
rfoot -14.7717 10.3416
rtoes -14.7473
lfemur -7.65817 11.6485 -14.4665
ltibia 41.0325
lfoot -22.2511 -11.391
ltoes 1.41829
37
root 1.65588 18.5364 6.83715 -184.125 -11.8303 -177.054
lowerback -0.168688 -1.14421 -2.34825
upperback 9.47305 -2.06523 -4.86201
thorax 10.0397 -1.38514 -4.14786
lowerneck -1.87442 3.93153 1.55153
upperneck 26.2346 2.38747 1.64583
head 8.4448 0.488151 0.331345
rclavicle -1.98785e-015 7.95139e-015
rhumerus -38.4184 -12.3205 -85.5079
rradius 31.9196
rwrist 3.36663
rhand -6.01682 7.66301
rfingers 7.12502
rthumb 19.8162 -21.3468
lclavicle -1.98785e-015 7.95139e-015
lhumerus -23.8775 -13.6087 83.9897
lradius 33.5568
lwrist -15.3051
lhand -6.82276 -9.21154
lfingers 7.12502
lthumb 19.0413 19.8764
rfemur -26.1538 -6.44235 19.3369
rtibia 56.9337
rfoot -14.9074 10.5138
rtoes -14.7321
lfemur -7.61127 11.6494 -14.4884
ltibia 40.9226
lfoot -22.2825 -11.1791
ltoes 1.15329
38
root 1.64931 18.5413 6.81326 -184.022 -11.6856 -177.054
lowerback -0.292352 -1.15377 -2.28715
upperback 9.46059 -2.06981 -4.82423
thorax 10.0986 -1.37963 -4.14722
lowerneck -1.81529 3.99228 1.67345
upperneck 26.1217 2.51746 1.48474
head 8.39995 0.551541 0.26602
rclavicle -2.38542e-014 3.02153e-014
rhumerus -38.2826 -12.687 -85.1953
rradius 31.7935
rwrist 3.58406
rhand -6.1032 7.59921
rfingers 7.12502
rthumb 19.7331 -21.4192
lclavicle -2.38542e-014 3.02153e-014
lhumerus -23.9511 -14.0958 84.0708
lradius 33.9217
lwrist -15.105
lhand -7.01345 -9.02325
lfingers 7.12502
lthumb 18.8579 20.0826
rfemur -26.4264 -6.55979 19.4154
rtibia 56.9019
rfoot -15.0761 10.711
rtoes -14.8809
lfemur -7.56284 11.6195 -14.537
ltibia 40.7958
lfoot -22.3219 -10.9175
ltoes 0.936815
39
root 1.64259 18.5458 6.78937 -183.919 -11.56 -177.053
lowerback -0.410884 -1.17272 -2.23046
upperback 9.45739 -2.08831 -4.76624
thorax 10.165 -1.38212 -4.12382
lowerneck -1.76201 4.05573 1.74791
upperneck 25.9932 2.65842 1.33104
head 8.34999 0.617819 0.212329
rclavicle 9.14409e-015 -6.67916e-014
rhumerus -38.1091 -13.0009 -84.8823
rradius 31.673
rwrist 3.78893
rhand -6.18848 7.50871
rfingers 7.12502
rthumb 19.6512 -21.5181
lclavicle 9.14409e-015 -6.67916e-014
lhumerus -23.995 -14.5169 84.1787
lradius 34.2802
lwrist -15.0254
lhand -7.33405 -8.88289
lfingers 7.12502
lthumb 18.5495 20.2527
rfemur -26.6898 -6.68183 19.4819
rtibia 56.8306
rfoot -15.241 10.9268
rtoes -14.9637
lfemur -7.5023 11.5826 -14.5814
ltibia 40.6531
lfoot -22.3671 -10.7273
ltoes 0.789914
40
root 1.63598 18.5513 6.7645 -183.821 -11.4259 -177.068
lowerback -0.519806 -1.18548 -2.17971
upperback 9.4606 -2.10021 -4.70248
thorax 10.2335 -1.38266 -4.09032
lowerneck -1.71824 4.12014 1.76176
upperneck 25.8784 2.80037 1.19684
head 8.30509 0.680422 0.175677
rclavicle -1.27222e-014 -7.15625e-014
rhumerus -37.9296 -13.2993 -84.5663
rradius 31.5842
rwrist 3.97653
rhand -6.26729 7.41497
rfingers 7.12502
rthumb 19.5754 -21.6195
lclavicle -1.27222e-014 -7.15625e-014
lhumerus -24.0145 -14.8619 84.2778
lradius 34.6258
lwrist -15.0506
lhand -7.75464 -8.7644
lfingers 7.12502
lthumb 18.1449 20.4093
rfemur -26.9502 -6.78082 19.5317
rtibia 56.7145
rfoot -15.3911 11.1422
rtoes -15.2616
lfemur -7.41836 11.5495 -14.6415
ltibia 40.4875
lfoot -22.4102 -10.4894
ltoes 0.477619
41
root 1.62938 18.5572 6.73928 -183.744 -11.3001 -177.082
lowerback -0.588875 -1.18947 -2.10443
upperback 9.45321 -2.10337 -4.64476
thorax 10.2655 -1.37691 -4.07316
lowerneck -1.57896 4.17037 1.77334
upperneck 25.7194 2.92071 1.06913
head 8.22785 0.732191 0.138451
rclavicle -2.38542e-014 -7.4743e-014
rhumerus -37.7756 -13.5768 -84.2709
rradius 31.5122
rwrist 4.09797
rhand -6.31385 7.33274
rfingers 7.12502
rthumb 19.5306 -21.7063
lclavicle -2.38542e-014 -7.4743e-014
lhumerus -24.0647 -15.1552 84.3786
lradius 34.9761
lwrist -15.1837
lhand -8.34974 -8.54108
lfingers 7.12502
lthumb 17.5723 20.6848
rfemur -27.1842 -6.87292 19.5669
rtibia 56.5499
rfoot -15.5384 11.3862
rtoes -15.4308
lfemur -7.29661 11.5168 -14.6919
ltibia 40.3072
lfoot -22.4778 -10.2911
ltoes 0.131218
